<svg xmlns="http://www.w3.org/2000/svg" xmlns:xlink="http://www.w3.org/1999/xlink" width="2492" height="364" viewBox="0 0 2492 364"><defs><linearGradient id="a" y1="182" x2="2492" y2="182" gradientUnits="userSpaceOnUse"><stop offset="0" stop-color="#cce0f4"/><stop offset="0.06" stop-color="#c3dcf2"/><stop offset="0.17" stop-color="#a9d2ee"/><stop offset="0.31" stop-color="#80c2e7"/><stop offset="0.46" stop-color="#47acde"/><stop offset="0.57" stop-color="#1e9cd7"/><stop offset="0.87" stop-color="#0075be"/><stop offset="0.99" stop-color="#005b97"/></linearGradient></defs><rect width="2492" height="364" fill="url(#a)"/><path d="M2340.63,223.31a20.88,20.88,0,0,1-2.58,1.74,3.92,3.92,0,0,1-1.57,0,5.8,5.8,0,0,1,.39-1.54,19.73,19.73,0,0,1,1.93-3c1.17-1.38,1.72-3.4,3-4.38a12,12,0,0,0,3.7-5.13,2.35,2.35,0,0,1,.53-.78c3.78-2.94,6.59-7,11-9.35,1.49-.78,2.6-2.26,3.9-3.43.23-.22.42-.55.7-.64,2.14-.72,2.32-2.16,1.85-4.12a5.73,5.73,0,0,1,.46-2.52c.18-.72.5-1.39.63-2.1A14.23,14.23,0,0,1,2370,179c2.09-1.6,4.06-3.41,6-5.22a24.28,24.28,0,0,0,1.87-2.53,20.84,20.84,0,0,1,1.82-1.67c.83-.78,1.68-1.53,2.47-2.34a17.36,17.36,0,0,0,2.05-2.32,7.1,7.1,0,0,0,1.17-2.47c.39-1.94.5-3.76,1.63-5.62a7.43,7.43,0,0,0,.8-6,3.57,3.57,0,0,1,2-4.22,1.76,1.76,0,0,0,.82-.84c.69-1.79,1.25-3.59,1.95-5.34.34-.82.87-1.58,1.27-2.38a2.63,2.63,0,0,0,.39-1c.24-2.47.36-4.92.63-7.36a10.46,10.46,0,0,1,2.83-6.22c2.75-3,3.88-6.86,5.15-10.6.4-1.15.27-2.5.61-3.68a10.12,10.12,0,0,0,.48-5.26.5.5,0,0,1,.15-.43c1.82-1.7,2.24-4,2.84-6.43a1.12,1.12,0,0,0-.29-.26c-2.15-1.41-2.13-1.54-.23-3.09a9.07,9.07,0,0,0,2.06-2.55,4.45,4.45,0,0,1,3.38-2.75,5.34,5.34,0,0,1-.1-1.42c.21-1.41.15-3,.81-4.17a12,12,0,0,0,1.47-6.66c-.16-2.94,0-5.9,0-8.86a5.3,5.3,0,0,0-.21-1.54c-.63-1.49-1.34-2.95-1.94-4.44-.13-.37.11-.9.15-1.39a19.79,19.79,0,0,0,.35-3.05,5.35,5.35,0,0,1,2.78-4.71,4.3,4.3,0,0,0,2.92-3.59,3.26,3.26,0,0,1,.65-1.21c.88-1.16,1.79-2.3,2.64-3.46a57.88,57.88,0,0,1,3.67-5.09,4.08,4.08,0,0,1,2.86-.92,17.89,17.89,0,0,1,5.2.71c1.22.39,2.19,1.44,3.29,2.19a9.06,9.06,0,0,0,2.33,1.58c2.6.74,3,1.62,1.5,3.92-.05.1-.14.18-.16.28-1,2.19-1.92,4.37-2.95,6.63,1.61.39,2.05,1.3,1.11,2.85-.55.91-.09,1.44.87,1.73a1.67,1.67,0,0,1,.92.89c0,.19-.44.71-.78.84a1.69,1.69,0,0,0-1.19,2,19,19,0,0,1-1.44,7.95,2,2,0,0,0,.34,1.5,3.37,3.37,0,0,1,.2,4.33c-.5.84-.92,1.74-1.38,2.64a1.79,1.79,0,0,0,.49,2.4c.28.23.61.7.53.9-.58,1.59.61,2.64,1,4a3.55,3.55,0,0,1-.56,2.85,4.3,4.3,0,0,0-.74,4.55,3.27,3.27,0,0,1-.81,3.89,1.42,1.42,0,0,0-.24,2.19c.88,1.09.75,2.05-.52,2.91a2.22,2.22,0,0,0-.67,1.68,7.87,7.87,0,0,0,.64,1.94c.67,2.29.56,4.43-1.39,6.08s-3.12,3.29-2.13,5.86c.65,1.68.2,3.38,0,5.08a11.4,11.4,0,0,0,.17,2.17,9.64,9.64,0,0,1,0,3.22,3.08,3.08,0,0,0,.36,2.95,2.53,2.53,0,0,1,.09,3,3.43,3.43,0,0,0-.2,2.53,48.21,48.21,0,0,0,2.84,5.24c1.08,1.81,1.24,3.48-.16,5.26a4.77,4.77,0,0,0-.77,2.68c0,2.83-1.64,4.83-3.24,6.86-.94,1.2-2,2.32-3,3.5a8.26,8.26,0,0,0-2.18,4.66,6.21,6.21,0,0,1-1,2.26,2.56,2.56,0,0,0,0,2.92,5.68,5.68,0,0,1,.41,2.63c0,.57-.49,1.44-.28,1.65,2,1.74-.21,3.13-.45,4.61-.08.55-1.39,1.25-2.12,1.26A24.47,24.47,0,0,1,2417,179c-.68-.13-1.52-.81-.78-1.45,1.77-1.57,1.91-3.75,2.45-5.83,0,0,0-.12-.11-.15-2.32-.73-2.54-1.37-1.17-3.48a3,3,0,0,0-.51-3.6c-.14-.11-.51-.27-.54-.23-1.28,1.33-3.5.59-4.64,2.32-2.41,3.54-4.73,7.1-5.56,11.44-.34,1.78-1.56,3.39-2.39,5.09a16.07,16.07,0,0,0-1.31,3.27c1.65-2.42,4-3.41,6.68-4.05a6.87,6.87,0,0,0,1.76-1c1.49-.9,2.77-.84,3.86.46a16.73,16.73,0,0,1,4.27,11.27,3.82,3.82,0,0,1-2.1,3.77,10.75,10.75,0,0,0-2.37,2.07,29.73,29.73,0,0,1-3.1,2.68c-2,1.31-3,1.08-4.5-1.09a32.54,32.54,0,0,0-2.93,2.8c-1.37,1.69-2.4,3.63-3.85,5.23a57.26,57.26,0,0,1-5.17,4.79,1.3,1.3,0,0,0,.41,2.31,1.72,1.72,0,0,1,1,2.67,44.79,44.79,0,0,1-2.63,4.26c-.22.34-.74.58-.81.93-.62,3.49-3.57,4.8-6.1,6.47a3.45,3.45,0,0,0-1.83,2.56,3.89,3.89,0,0,1-2,2.86,45.14,45.14,0,0,0-4.41,3.8,7.41,7.41,0,0,1-5.63,2.07c-4.51-.36-7.8,1.45-10.36,5.17a10.17,10.17,0,0,1-3.88,2.91,48.48,48.48,0,0,0-10.14,6.8,8,8,0,0,0-2.82,5.29,17.53,17.53,0,0,1-.86,4c-.85,2.44-3.25,3.12-5.41,1.64-.58-.39-1.08-.85-1.63-1.27a6.57,6.57,0,0,0-8.44.18,18.12,18.12,0,0,1-3.18,1.58s-.13,0-.16,0c-1,2-2.34,3.91-2.69,6-.22,1.35,1,3,1.69,4.47a4.3,4.3,0,0,1-.18,4.09c-.95,1.8-1.9,3.61-2.74,5.47a2,2,0,0,0,.22,1.6c1.06,1.68.84,2.4-.66,3.81a22,22,0,0,0-2.5,3.55c-.14.2-.15.52-.26.72-1.39,2.46-2.82,4.91-4.18,7.4-.55,1-1.19,1.58-2.4,1.34a1.92,1.92,0,0,0-1.07.2c-4,2.23-8,4.49-12,6.72a74.81,74.81,0,0,1-18.62,7.27,6.87,6.87,0,0,0-4,2.14c-2.51,3.1-5.72,3.73-9.43,2.85a1.9,1.9,0,0,0-1.09-.09c-3.71,1.48-7.5-.32-11.22.36a4,4,0,0,1-1.88-.26c-2.32-.79-4.65-1.65-7-2.47-.59-.2-1.26-.17-1.86-.36-1-.32-1.9-.74-2.86-1.09s-1.63-.6-2.49-.84a13.71,13.71,0,0,1-2.39-.62,39.42,39.42,0,0,1-4.54-2.52c-.52-.36-1.15-1.22-1-1.71a3.81,3.81,0,0,1,1.36-2.42,16.79,16.79,0,0,1,3.82-.91c1.41-.36,2.85-.75,4.25-1.18.31-.09.57-.33.86-.39,7.71-1.74,15.1-5.18,23.28-4.42a1.38,1.38,0,0,0,1.08-.43,19,19,0,0,0,2.22-3.55,3.47,3.47,0,0,1,3.25-2.12,13.72,13.72,0,0,1,3,.19,7.11,7.11,0,0,0,5.65-1.54,8.9,8.9,0,0,1,3.53-1.55c2.33-.42,4-1.4,4.44-3.86s2.6-3.21,4.32-4.26a9.18,9.18,0,0,0,2.39-1.82c1-1.15,2.44-2,3.21-3.21,1.47-2.39,2.63-5,3.92-7.49,1.37-2.71,2.71-5.41,4.08-8.12A16.24,16.24,0,0,0,2307,266a16.36,16.36,0,0,1,6-8.72,78.17,78.17,0,0,1,12.67-8.12c1.59-.79,2.73-2.59,4-4,.47-.49.75-1.18,1.22-1.68.85-.84,1.47-1.63.55-2.84-.14-.21.08-.9.34-1.18a10.59,10.59,0,0,1,2.25-2.28,11.64,11.64,0,0,0,5.05-7.7c.27-1.14,1.48-2.18,2.46-3,1.15-1,1.12-1.63-.11-2.4C2341.24,223.92,2341,223.6,2340.63,223.31Z" fill="#7dbcca"/><path d="M1363.92,113.12v42h-4.2v-38h-21.6v38h-4.2v-42Z" fill="#fff"/><path d="M1389,124.4a14.87,14.87,0,0,1,11,4.56,16,16,0,0,1,0,22.32,14.87,14.87,0,0,1-11,4.56,13.43,13.43,0,0,1-12.12-6.6v17.88h-4v-42h4V131A13.43,13.43,0,0,1,1389,124.4Zm-8.7,24.15a12,12,0,0,0,16.8,0,12.1,12.1,0,0,0,0-16.86,12,12,0,0,0-16.8,0,12.1,12.1,0,0,0,0,16.86Z" fill="#fff"/><path d="M1432.92,125.12h3.36v30h-4V132l-17.88,23.1h-3.36v-30h4v23.1Z" fill="#fff"/><path d="M1463.76,139.7a6.88,6.88,0,0,1,4.92,7,8.06,8.06,0,0,1-2.43,6q-2.43,2.37-7,2.37h-14.58v-30h13.38a9.53,9.53,0,0,1,6.78,2.25,7.58,7.58,0,0,1,2.4,5.79A7,7,0,0,1,1463.76,139.7Zm-5.7-10.74h-9.42v9.12h9.42q5.22,0,5.22-4.68a4.1,4.1,0,0,0-1.35-3.27A5.74,5.74,0,0,0,1458.06,129Zm1.2,22.32a5.88,5.88,0,0,0,4-1.26,4.5,4.5,0,0,0,1.41-3.54,4.19,4.19,0,0,0-1.41-3.33,6,6,0,0,0-4-1.23h-10.62v9.36Z" fill="#fff"/><path d="M1488.54,124.4a13.61,13.61,0,0,1,10.77,4.71,16.38,16.38,0,0,1,4.11,11.13q0,.66-.12,1.86H1477a10.76,10.76,0,0,0,3.87,7.23,12.34,12.34,0,0,0,8.07,2.67,11.8,11.8,0,0,0,5.91-1.41,9.51,9.51,0,0,0,3.75-3.69l3.48,2a14.25,14.25,0,0,1-5.4,5,16.06,16.06,0,0,1-7.8,1.86,15.59,15.59,0,0,1-11.52-4.44,15.28,15.28,0,0,1-4.44-11.28,15.45,15.45,0,0,1,4.38-11.22A15.05,15.05,0,0,1,1488.54,124.4Zm0,3.84a11.23,11.23,0,0,0-11.58,10h22.38a11.19,11.19,0,0,0-3.66-7.38A10.59,10.59,0,0,0,1488.54,128.24Z" fill="#fff"/><path d="M1530.12,125.12V129H1519.5v26.16h-4V129h-10.62v-3.84Z" fill="#fff"/><path d="M1540,154.76a3.33,3.33,0,1,1,1-2.34A3.18,3.18,0,0,1,1540,154.76Zm-3.84-11-.9-18.6v-12h4.8v12l-.9,18.6Z" fill="#fff"/><path d="M1602.72,113.12v42h-4.2V119.48l-14.7,24.6h-.6l-14.7-24.6v35.64h-4.2v-42h5.22l14,23.4,14-23.4Z" fill="#fff"/><path d="M1625.58,124.4a13.61,13.61,0,0,1,10.77,4.71,16.38,16.38,0,0,1,4.11,11.13q0,.66-.12,1.86H1614a10.76,10.76,0,0,0,3.87,7.23,12.34,12.34,0,0,0,8.07,2.67,11.8,11.8,0,0,0,5.91-1.41,9.51,9.51,0,0,0,3.75-3.69l3.48,2a14.25,14.25,0,0,1-5.4,5,16.06,16.06,0,0,1-7.8,1.86,15.59,15.59,0,0,1-11.52-4.44,15.28,15.28,0,0,1-4.44-11.28,15.45,15.45,0,0,1,4.38-11.22A15.05,15.05,0,0,1,1625.58,124.4Zm0,3.84a11.23,11.23,0,0,0-11.58,10h22.38a11.19,11.19,0,0,0-3.66-7.38A10.59,10.59,0,0,0,1625.58,128.24Z" fill="#fff"/><path d="M1668,125.12h4v30h-4V142h-17.28v13.08h-4v-30h4V138.2H1668Z" fill="#fff"/><path d="M1702,125.12v30h-4V143.6h-5.16l-9.24,11.52h-5l9.48-11.64a10,10,0,0,1-5.94-3,8.46,8.46,0,0,1-2.34-6.06,8.58,8.58,0,0,1,2.91-6.69,10.27,10.27,0,0,1,7.11-2.61Zm-12.18,14.76H1698V129h-8.22a6.41,6.41,0,0,0-4.29,1.5,5.31,5.31,0,0,0,0,7.92A6.41,6.41,0,0,0,1689.78,139.88Z" fill="#fff"/><path d="M1740.84,139.7q5.22,2,5.22,7.2a8.2,8.2,0,0,1-2.91,6.33q-2.91,2.61-8.31,2.61-9.06,0-11.88-7.2l3.36-2q1.86,5.34,8.52,5.34a8.45,8.45,0,0,0,5.37-1.5,4.69,4.69,0,0,0,1.89-3.84,4.27,4.27,0,0,0-1.56-3.42,6.29,6.29,0,0,0-4.2-1.32H1732v-3.84h3.18a5.93,5.93,0,0,0,4-1.29,4.5,4.5,0,0,0,1.47-3.57,4.4,4.4,0,0,0-1.74-3.57,7.22,7.22,0,0,0-4.68-1.41q-5.64,0-7.5,4.5l-3.3-1.92q3-6.42,10.8-6.42a11,11,0,0,1,7.56,2.49,7.82,7.82,0,0,1,2.82,6.09A7.12,7.12,0,0,1,1740.84,139.7Z" fill="#fff"/><path d="M1777.23,151.31a16.09,16.09,0,0,1-22.38,0,15.94,15.94,0,0,1,0-22.38,16.09,16.09,0,0,1,22.38,0,15.94,15.94,0,0,1,0,22.38Zm-19.59-2.76a12,12,0,0,0,16.8,0,12.1,12.1,0,0,0,0-16.86,12,12,0,0,0-16.8,0,12.1,12.1,0,0,0,0,16.86Z" fill="#fff"/><path d="M1807.5,139.7a6.88,6.88,0,0,1,4.92,7,8.06,8.06,0,0,1-2.43,6q-2.43,2.37-7,2.37h-14.58v-30h13.38a9.55,9.55,0,0,1,6.78,2.25,7.62,7.62,0,0,1,2.4,5.79A7,7,0,0,1,1807.5,139.7ZM1801.8,129h-9.42v9.12h9.42q5.22,0,5.22-4.68a4.1,4.1,0,0,0-1.35-3.27A5.74,5.74,0,0,0,1801.8,129Zm1.2,22.32a5.88,5.88,0,0,0,4-1.26,4.5,4.5,0,0,0,1.41-3.54,4.19,4.19,0,0,0-1.41-3.33,6,6,0,0,0-4-1.23h-10.62v9.36Z" fill="#fff"/><path d="M1838.82,125.12h4.2l-12.84,32.76a16.27,16.27,0,0,1-5,7,10,10,0,0,1-7.17,2.25V163.4q5.4.6,8.22-6.24l.78-1.86-13.44-30.18h4.2l11.28,25.14Z" fill="#fff"/><path d="M1869.42,125.12V129H1858.8v26.16h-4V129h-10.62v-3.84Z" fill="#fff"/><path d="M1913.1,133.34a11.2,11.2,0,0,1,4.89,4,10.52,10.52,0,0,1,1.83,6.09,11.68,11.68,0,0,1-11.7,11.7h-18.3v-42h16.92A11.32,11.32,0,0,1,1918,124.4,9.89,9.89,0,0,1,1913.1,133.34Zm-6.36-16.26H1894v14.64h12.72a6.73,6.73,0,0,0,5-2.13,7.5,7.5,0,0,0,0-10.35A6.68,6.68,0,0,0,1906.74,117.08Zm1.38,34.08a7.15,7.15,0,0,0,5.31-2.25,7.94,7.94,0,0,0,0-10.95,7.11,7.11,0,0,0-5.31-2.28H1894v15.48Z" fill="#fff"/><path d="M1952.21,125.12h4v30h-4v-5.88a13.42,13.42,0,0,1-12.12,6.6,14.87,14.87,0,0,1-10.95-4.56,16,16,0,0,1,0-22.32,14.87,14.87,0,0,1,10.95-4.56,13.42,13.42,0,0,1,12.12,6.6ZM1932,148.55a11.94,11.94,0,0,0,16.79,0,11.88,11.88,0,0,0-8.4-20.31,11.33,11.33,0,0,0-8.39,3.45,12.1,12.1,0,0,0,0,16.86Z" fill="#fff"/><path d="M1989.77,151.28h4.2v11.88h-4v-8h-24.48v8h-4V151.28h3.66q3.06-4,3.06-11.34V125.12h21.48Zm-19.74,0h15.78V129h-13.56v11A25.33,25.33,0,0,1,1970,151.28Z" fill="#fff"/><path d="M2021.81,125.12h3.36v30h-4V132l-17.88,23.1H2000v-30h4v23.1Z" fill="#fff"/><path d="M2063,125.12v30h-4V131.18l-10.5,17H2048l-10.5-17v23.94h-4v-30h4.56l10.14,16.44,10.14-16.44Z" fill="#fff"/><path d="M2076.41,154.76a3.33,3.33,0,1,1,1-2.34A3.18,3.18,0,0,1,2076.41,154.76Z" fill="#fff"/><path d="M1361.52,203.12v42h-4.2v-16.8h-10.08l-11.52,16.8h-4.8l11.7-17a12.37,12.37,0,0,1-7.5-4.29,12.58,12.58,0,0,1,9.6-20.73Zm-16.8,21.24h12.6V207.08h-12.6a8,8,0,0,0-5.94,2.52,8.81,8.81,0,0,0,0,12.21A8,8,0,0,0,1344.72,224.36Z" fill="#fff"/><path d="M1404.6,229.7a6.88,6.88,0,0,1,4.92,7,8.06,8.06,0,0,1-2.43,6q-2.43,2.37-7,2.37h-14.58v-30h13.38a9.53,9.53,0,0,1,6.78,2.25,7.58,7.58,0,0,1,2.4,5.79A7,7,0,0,1,1404.6,229.7ZM1398.9,219h-9.42v9.12h9.42q5.22,0,5.22-4.68a4.1,4.1,0,0,0-1.35-3.27A5.74,5.74,0,0,0,1398.9,219Zm1.2,22.32a5.88,5.88,0,0,0,4.05-1.26,4.5,4.5,0,0,0,1.41-3.54,4.19,4.19,0,0,0-1.41-3.33,6,6,0,0,0-4.05-1.23h-10.62v9.36Z" fill="#fff"/><path d="M1429.38,214.4a13.61,13.61,0,0,1,10.77,4.71,16.38,16.38,0,0,1,4.11,11.13q0,.66-.12,1.86H1417.8a10.76,10.76,0,0,0,3.87,7.23,12.34,12.34,0,0,0,8.07,2.67,11.8,11.8,0,0,0,5.91-1.41,9.51,9.51,0,0,0,3.75-3.69l3.48,2a14.25,14.25,0,0,1-5.4,5,16.06,16.06,0,0,1-7.8,1.86,15.59,15.59,0,0,1-11.52-4.44,15.28,15.28,0,0,1-4.44-11.28,15.45,15.45,0,0,1,4.38-11.22A15.05,15.05,0,0,1,1429.38,214.4Zm0,3.84a11.23,11.23,0,0,0-11.58,10h22.38a11.19,11.19,0,0,0-3.66-7.38A10.59,10.59,0,0,0,1429.38,218.24Z" fill="#fff"/><path d="M1463.88,245.84a14.71,14.71,0,0,1-10.8-4.29,15,15,0,0,1-4.32-11.13q0-7.68,2.28-11.79t9.24-7.47q1.32-.66,3.51-1.56t3.3-1.44a21.86,21.86,0,0,0,2.43-1.41,5.8,5.8,0,0,0,2.82-4.53l3.12,1.8a8.07,8.07,0,0,1-1,2.7,10.35,10.35,0,0,1-1.47,2,11.07,11.07,0,0,1-2.34,1.71q-1.59.93-2.46,1.32t-3,1.29l-2.85,1.2a20.26,20.26,0,0,0-6.18,3.75,10.93,10.93,0,0,0-2.82,5.07,12.17,12.17,0,0,1,5.19-4,16.17,16.17,0,0,1,6.15-1.29,13.46,13.46,0,0,1,9.93,3.93,13.61,13.61,0,0,1,3.93,10.05,13.32,13.32,0,0,1-4.17,10A14.62,14.62,0,0,1,1463.88,245.84Zm0-4a10.8,10.8,0,0,0,7.71-2.85,9.5,9.5,0,0,0,3-7.23,9.87,9.87,0,0,0-2.85-7.29,10.26,10.26,0,0,0-7.59-2.85,12.41,12.41,0,0,0-7.74,2.67,8.51,8.51,0,0,0-3.48,7.11,9.81,9.81,0,0,0,3.15,7.5A11,11,0,0,0,1463.88,241.88Z" fill="#fff"/><path d="M1485.18,228.5v-3.84h21.6v3.84Z" fill="#fff"/><path d="M1531.86,214.4a14.87,14.87,0,0,1,11,4.56,16,16,0,0,1,0,22.32,14.87,14.87,0,0,1-11,4.56,13.43,13.43,0,0,1-12.12-6.6v17.88h-4v-42h4V221A13.43,13.43,0,0,1,1531.86,214.4Zm-8.7,24.15a12,12,0,0,0,16.8,0,12.1,12.1,0,0,0,0-16.86,12,12,0,0,0-16.8,0,12.1,12.1,0,0,0,0,16.86Z" fill="#fff"/><path d="M1579.74,215.12h4v30h-4v-5.88a13.43,13.43,0,0,1-12.12,6.6,14.87,14.87,0,0,1-10.95-4.56,16,16,0,0,1,0-22.32,14.87,14.87,0,0,1,10.95-4.56,13.43,13.43,0,0,1,12.12,6.6Zm-20.22,23.43a12,12,0,0,0,16.8,0,12.1,12.1,0,0,0,0-16.86,12,12,0,0,0-16.8,0,12.1,12.1,0,0,0,0,16.86Z" fill="#fff"/><path d="M1607.58,229.7q5.22,2,5.22,7.2a8.2,8.2,0,0,1-2.91,6.33q-2.91,2.61-8.31,2.61-9.06,0-11.88-7.2l3.36-2q1.86,5.34,8.52,5.34a8.45,8.45,0,0,0,5.37-1.5,4.69,4.69,0,0,0,1.89-3.84,4.27,4.27,0,0,0-1.56-3.42,6.29,6.29,0,0,0-4.2-1.32h-4.38v-3.84h3.18a5.93,5.93,0,0,0,4-1.29,4.5,4.5,0,0,0,1.47-3.57,4.4,4.4,0,0,0-1.74-3.57,7.22,7.22,0,0,0-4.68-1.41q-5.64,0-7.5,4.5l-3.3-1.92q3-6.42,10.8-6.42a11,11,0,0,1,7.56,2.49,7.82,7.82,0,0,1,2.82,6.09A7.12,7.12,0,0,1,1607.58,229.7Z" fill="#fff"/><path d="M1634.88,214.4a14.88,14.88,0,0,1,10.95,4.56,16,16,0,0,1,0,22.32,14.88,14.88,0,0,1-10.95,4.56,13.43,13.43,0,0,1-12.12-6.6v17.88h-4v-42h4V221A13.43,13.43,0,0,1,1634.88,214.4Zm-8.7,24.15a12,12,0,0,0,16.8,0,12.1,12.1,0,0,0,0-16.86,12,12,0,0,0-16.8,0,12.1,12.1,0,0,0,0,16.86Z" fill="#fff"/><path d="M1682.76,215.12h4v30h-4v-5.88a13.43,13.43,0,0,1-12.12,6.6,14.87,14.87,0,0,1-11-4.56,16,16,0,0,1,0-22.32,14.87,14.87,0,0,1,11-4.56,13.43,13.43,0,0,1,12.12,6.6Zm-20.22,23.43a12,12,0,0,0,16.8,0,12.1,12.1,0,0,0,0-16.86,12,12,0,0,0-16.8,0,12.1,12.1,0,0,0,0,16.86Z" fill="#fff"/><path d="M1708.43,245.84a14.71,14.71,0,0,1-10.8-4.29,15,15,0,0,1-4.32-11.13q0-7.68,2.28-11.79t9.24-7.47q1.32-.66,3.51-1.56t3.3-1.44a21.86,21.86,0,0,0,2.43-1.41,5.8,5.8,0,0,0,2.82-4.53L1720,204a8.07,8.07,0,0,1-1,2.7,10.35,10.35,0,0,1-1.47,2,11.07,11.07,0,0,1-2.34,1.71q-1.59.93-2.46,1.32t-3,1.29l-2.85,1.2a20.26,20.26,0,0,0-6.18,3.75,10.93,10.93,0,0,0-2.82,5.07,12.17,12.17,0,0,1,5.19-4,16.17,16.17,0,0,1,6.15-1.29,13.46,13.46,0,0,1,9.93,3.93,13.61,13.61,0,0,1,3.93,10.05,13.32,13.32,0,0,1-4.17,10A14.62,14.62,0,0,1,1708.43,245.84Zm0-4a10.8,10.8,0,0,0,7.71-2.85,9.5,9.5,0,0,0,3-7.23,9.87,9.87,0,0,0-2.85-7.29,10.26,10.26,0,0,0-7.59-2.85,12.41,12.41,0,0,0-7.74,2.67,8.51,8.51,0,0,0-3.48,7.11,9.81,9.81,0,0,0,3.15,7.5A11,11,0,0,0,1708.43,241.88Z" fill="#fff"/><path d="M1754.3,241.31a16.09,16.09,0,0,1-22.38,0,15.94,15.94,0,0,1,0-22.38,16.09,16.09,0,0,1,22.38,0,15.94,15.94,0,0,1,0,22.38Zm-19.59-2.76a12,12,0,0,0,16.8,0,12.1,12.1,0,0,0,0-16.86,12,12,0,0,0-16.8,0,12.1,12.1,0,0,0,0,16.86Z" fill="#fff"/><path d="M1785.89,215.12V219h-10.62v26.16h-4V219h-10.62v-3.84Z" fill="#fff"/><path d="M1810.13,215.12h4v30h-4v-11.4a18.53,18.53,0,0,1-8.58,1.8q-5.88,0-9-2.73t-3.09-8.07v-9.6h4v9.6q0,3.78,2,5.43t6,1.65a21.66,21.66,0,0,0,8.7-1.74Z" fill="#fff"/><path d="M1844.33,215.12h3.36v30h-4V222l-17.88,23.1h-3.36v-30h4v23.1Z" fill="#fff"/><path d="M1880.33,245.12h-5.28l-15-14.46v14.46h-4v-30h4v13.26l14.28-13.26h5.4l-15.48,14.4Z" fill="#fff"/><path d="M1922.57,215.12h3.36v30h-4V222l-17.88,23.1h-3.36v-30h4v23.1Z" fill="#fff"/><path d="M1949.81,229.7q5.22,2,5.22,7.2a8.2,8.2,0,0,1-2.91,6.33q-2.91,2.61-8.31,2.61-9.06,0-11.88-7.2l3.36-2q1.86,5.34,8.52,5.34a8.45,8.45,0,0,0,5.37-1.5,4.69,4.69,0,0,0,1.89-3.84,4.27,4.27,0,0,0-1.56-3.42,6.29,6.29,0,0,0-4.2-1.32h-4.38v-3.84h3.18a5.93,5.93,0,0,0,4.05-1.29,4.5,4.5,0,0,0,1.47-3.57,4.4,4.4,0,0,0-1.74-3.57,7.22,7.22,0,0,0-4.68-1.41q-5.64,0-7.5,4.5l-3.3-1.92q3-6.42,10.8-6.42a11,11,0,0,1,7.56,2.49,7.82,7.82,0,0,1,2.82,6.09A7.12,7.12,0,0,1,1949.81,229.7Z" fill="#fff"/><path d="M2003.63,245.12v-34.2l-23.4,34.2h-3.6v-42h4.2v34.2l23.4-34.2h3.6v42Z" fill="#fff"/><path d="M2032.91,214.4a14.87,14.87,0,0,1,10.95,4.56,16,16,0,0,1,0,22.32,14.87,14.87,0,0,1-10.95,4.56,13.43,13.43,0,0,1-12.12-6.6v17.88h-4v-42h4V221A13.43,13.43,0,0,1,2032.91,214.4Zm-8.7,24.15a12,12,0,0,0,16.8,0,12.1,12.1,0,0,0,0-16.86,12,12,0,0,0-16.8,0,12.1,12.1,0,0,0,0,16.86Z" fill="#fff"/><path d="M2079.23,245.12H2074l-15-14.46v14.46h-4v-30h4v13.26l14.28-13.26h5.4l-15.48,14.4Z" fill="#fff"/><path d="M2105,215.12h4.2l-12.84,32.76a16.27,16.27,0,0,1-4.95,7,10,10,0,0,1-7.17,2.25V253.4q5.4.6,8.22-6.24l.78-1.86-13.44-30.18h4.2l11.28,25.14Z" fill="#fff"/><path d="M2135.63,215.12V219H2125v26.16h-4V219h-10.62v-3.84Z" fill="#fff"/><path d="M2153.21,245.84a15.72,15.72,0,1,1,8-29.31,12.63,12.63,0,0,1,5.16,5.73l-3.24,1.86a9.32,9.32,0,0,0-3.87-4.29,11.56,11.56,0,0,0-6-1.59,11.37,11.37,0,0,0-8.4,3.45,12.1,12.1,0,0,0,0,16.86,11.65,11.65,0,0,0,18.54-2.43l3.3,1.92a13.86,13.86,0,0,1-5.46,5.7A15.55,15.55,0,0,1,2153.21,245.84Z" fill="#fff"/><path d="M2196.59,245.12h-5.28l-15-14.46v14.46h-4v-30h4v13.26l14.28-13.26h5.4l-15.48,14.4Z" fill="#fff"/><path d="M2224.79,215.12h4v30h-4v-5.88a13.43,13.43,0,0,1-12.12,6.6,14.87,14.87,0,0,1-11-4.56,16,16,0,0,1,0-22.32,14.87,14.87,0,0,1,11-4.56,13.43,13.43,0,0,1,12.12,6.6Zm-20.22,23.43a12,12,0,0,0,16.8,0,12.1,12.1,0,0,0,0-16.86,12,12,0,0,0-16.8,0,12.1,12.1,0,0,0,0,16.86Z" fill="#fff"/><path d="M2242.19,244.76a3.33,3.33,0,1,1,1-2.34A3.18,3.18,0,0,1,2242.19,244.76Z" fill="#fff"/></svg>
