<svg xmlns="http://www.w3.org/2000/svg" viewBox="0 0 72 72">
  <g fill-rule="evenodd" clip-rule="evenodd">
    <path d="M36 72c19.9 0 36-16.1 36-36S55.9 0 36 0 0 16.1 0 36s16.1 36 36 36z" fill="#005b97" />
    <path d="M18 26.2v20.4c0 1.1.8 2 1.9 2h31.8c1.1 0 1.9-.9 1.9-2V26.2c0-1.2-.7-2.2-1.9-2.2H19.9c-1.2 0-1.9 1-1.9 2.2m2.9 1.7c0-.5.3-.8.8-.8.3 0 11.9 7.3 12.6 7.8l1.8 1.1c.6-.4 1.2-.7 1.7-1.1 1.2-.8 12-7.8 12.3-7.8.5 0 .8.3.8.8s-1 1-1.7 1.4c-4.1 2.5-8.2 5.2-12.3 7.8-.2.2-.7.5-1 .5-.4-.1-12.1-7.6-14.3-8.9-.3-.1-.7-.3-.7-.8" fill="#fff" />
  </g>
</svg>
