<svg xmlns="http://www.w3.org/2000/svg" xmlns:xlink="http://www.w3.org/1999/xlink" viewBox="0 0 48 48">
<style type="text/css">
	.st0{fill-rule:evenodd;clip-rule:evenodd;fill:#FFFFFF;}
	.st1{fill-rule:evenodd;clip-rule:evenodd;fill:#005B97;}
</style>
<g>
	<circle class="st0" cx="24" cy="24" r="22.5"/>
	<path class="st1" d="M0,24c0,13.3,10.7,24,24,24s24-10.7,24-24S37.3,0,24,0S0,10.7,0,24z M19.6,35l0.4-6.1l11.1-10
		c0.5-0.4-0.1-0.6-0.8-0.3l-13.7,8.7l-5.9-1.9C9.4,25,9.4,24.1,11,23.5l23.1-8.9c1.1-0.5,2.1,0.3,1.7,1.9L31.9,35
		c-0.3,1.3-1.1,1.6-2.2,1l-6-4.4l-2.9,2.8l0,0C20.5,34.7,20.2,35,19.6,35z"/>
</g>
</svg>
